<?xml version="1.0" standalone="no"?>
<!DOCTYPE svg PUBLIC "-//W3C//DTD SVG 20010904//EN"
 "http://www.w3.org/TR/2001/REC-SVG-20010904/DTD/svg10.dtd">
<svg version="1.0" xmlns="http://www.w3.org/2000/svg"
 width="128.000000pt" height="170.000000pt" viewBox="0 0 128.000000 170.000000"
 preserveAspectRatio="xMidYMid meet">
<metadata>
Created by potrace 1.15, written by Peter Selinger 2001-2017
</metadata>
<g transform="translate(0.000000,170.000000) scale(0.100000,-0.100000)"
fill="#000000" stroke="none">
<path d="M571 1217 c-75 -29 -106 -110 -56 -143 21 -14 31 -15 51 -5 22 10 25
16 19 42 -10 43 16 69 67 69 68 0 108 -63 77 -123 -6 -12 -44 -54 -84 -93 -82
-79 -101 -124 -74 -173 30 -53 92 -35 82 24 -5 32 0 40 65 108 39 40 78 89 87
110 30 72 11 143 -47 173 -42 22 -143 27 -187 11z"/>
</g>
</svg>
